<svg xmlns="http://www.w3.org/2000/svg" viewBox="0 0 51.18 51.19"><defs><style>.cls-1{fill:#fff;}</style></defs><title>Asset 9</title><g id="Layer_2" data-name="Layer 2"><g id="Layer_1-2" data-name="Layer 1"><path class="cls-1" d="M0,0V51.19H51.18V0ZM8,44.47a16.06,16.06,0,0,1,9.45-14.63l.44-.19a11.45,11.45,0,1,1,15.9-6.25,11.69,11.69,0,0,0-8.49,5.08,11.94,11.94,0,0,0-1.23,2.35,11.73,11.73,0,0,0,4,13.64ZM44.34,35.3v0a7.46,7.46,0,0,1-.1,1.06,3.9,3.9,0,0,1-3.81,3,3,3,0,0,1-.43,0,3.93,3.93,0,0,1-2.33-1.11,4.26,4.26,0,0,1-2.75,1,4.31,4.31,0,1,1,3.34-7,4.26,4.26,0,0,1,1,2.72,2.71,2.71,0,0,1,0,.29v0a1.23,1.23,0,0,0,0,.2v0a1.2,1.2,0,0,0,1.21,1.19,1.21,1.21,0,0,0,1.16-.82,1.15,1.15,0,0,0,.06-.37.81.81,0,0,0,0-.16h0c0-.11,0-.21,0-.32a6.71,6.71,0,1,0-6.71,6.7h9.42v2.72H34.92A9.42,9.42,0,1,1,44.34,35Zm-9.42-1.93A1.6,1.6,0,1,0,36.51,35,1.6,1.6,0,0,0,34.92,33.37Z"/></g></g></svg>