<svg xmlns="http://www.w3.org/2000/svg" viewBox="0 0 51.19 51.19"><defs><style>.cls-1{fill:#fff;}</style></defs><title>Asset 10</title><g id="Layer_2" data-name="Layer 2"><g id="Layer_1-2" data-name="Layer 1"><path class="cls-1" d="M0,0V51.19H51.19V0ZM5.4,34.32V15.78a2,2,0,0,1,2-2h9.38V12A2.49,2.49,0,0,1,19.26,9.5h6.5A2.49,2.49,0,0,1,28.25,12V13.8h9.63a2,2,0,0,1,2,2V17.2a.68.68,0,0,1-.67.68l-22.88.06a3.53,3.53,0,0,0-3.15,1.94L5.83,34.42A.23.23,0,0,1,5.4,34.32ZM48.78,20.39,40.25,37.55a3.13,3.13,0,0,1-2.8,1.73H6.55a.66.66,0,0,1-.6-1l8.53-17.16a3.13,3.13,0,0,1,2.8-1.73h30.9A.66.66,0,0,1,48.78,20.39ZM26.05,12.64a.59.59,0,0,0-.59-.59h-5.9a.59.59,0,0,0-.59.59V13.8h7.08Z"/></g></g></svg>