<svg xmlns="http://www.w3.org/2000/svg" viewBox="0 0 50.99 51"><defs><style>.cls-1{fill:#fff;}</style></defs><title>Asset 7</title><g id="Layer_2" data-name="Layer 2"><g id="Layer_1-2" data-name="Layer 1"><path class="cls-1" d="M29,24.91a3,3,0,1,1-3-3A3,3,0,0,1,29,24.91Z"/><path class="cls-1" d="M0,0V51H51V0ZM46.81,20.29H43.69V36.76A6.24,6.24,0,0,1,37.45,43H35.59a1.31,1.31,0,0,1-1.31-1.31V37.32A3.31,3.31,0,0,0,31,34H21.55a3.3,3.3,0,0,0-3.3,3.3v4.37A1.31,1.31,0,0,1,16.94,43H15.08a6.25,6.25,0,0,1-6.25-6.24V20.29H5.1a.65.65,0,0,1-.34-1.21l20-11.94a2.37,2.37,0,0,1,2.41,0l20,11.94A.65.65,0,0,1,46.81,20.29Z"/></g></g></svg>