<svg xmlns="http://www.w3.org/2000/svg" viewBox="0 0 51.18 51.19"><defs><style>.cls-1{fill:#fff;}</style></defs><title>Asset 8</title><g id="Layer_2" data-name="Layer 2"><g id="Layer_1-2" data-name="Layer 1"><path class="cls-1" d="M0,0V51.19H51.18V0ZM15.9,19.63A6.17,6.17,0,0,1,22,25.89,6.34,6.34,0,0,1,20.5,30a5.93,5.93,0,0,1-9.2,0,6.29,6.29,0,0,1-1.48-4.08A6.17,6.17,0,0,1,15.9,19.63ZM27.14,46.46H4.65V40.25A11.2,11.2,0,0,1,9.5,31a8,8,0,0,0,12.8,0,11.21,11.21,0,0,1,4.84,9.25ZM36,27.08A11.12,11.12,0,0,1,30.3,26l-5.82,1.45a.72.72,0,0,1-.85-.91l1.77-5.19A11.13,11.13,0,1,1,36,27.08ZM35.24,15.2a1.13,1.13,0,0,0-1.13,1.12v4.55a1.13,1.13,0,1,0,2.25,0V16.32a1.11,1.11,0,0,0-1.12-1.12Zm0-3.62a1.12,1.12,0,0,0-.8.33,1.12,1.12,0,0,0,.8,1.92A1.12,1.12,0,0,0,36,13.5a1.12,1.12,0,0,0,0-1.59A1.08,1.08,0,0,0,35.24,11.58Z"/></g></g></svg>