<?xml version="1.0" encoding="utf-8"?>
<!-- Generator: Adobe Illustrator 24.1.1, SVG Export Plug-In . SVG Version: 6.00 Build 0)  -->
<svg version="1.1" id="Layer_1" xmlns="http://www.w3.org/2000/svg" xmlns:xlink="http://www.w3.org/1999/xlink" x="0px" y="0px"
	 viewBox="0 0 512 512" style="enable-background:new 0 0 512 512;" xml:space="preserve">
<style type="text/css">
	.st0{fill-rule:evenodd;clip-rule:evenodd;fill:#1A1918;}
	.st1{fill-rule:evenodd;clip-rule:evenodd;fill:#21609B;}
</style>
<g>
	<path class="st0" d="M490.5,206.4l21.5,0.1c0,0-40,54.2-43.2,58.6c-1.1,1.4-2.7,3-3.5,4.9c-2.1,4.8-4.2,15.3-4.2,15.3l-19.7,0.1
		c0,0,3.1-11,2.9-16.8c-0.1-5.1-2.7-10.2-4.2-15.3c-1.5-5.2-3.5-15.3-3.5-15.3h20.2l2.8,11.2L490.5,206.4"/>
	<path class="st0" d="M449.8,217.8c4,2.4,6.4,15.6,6.4,15.6s-20.8,0.3-32.1,0.3h-9.8l-11.9,51.6h-18.1c0,0,11.3-56.1,13.9-66.2
		c0.9-3.3,5.9-2.7,14.4-2.7h13.6C435.2,216.4,445.5,215.2,449.8,217.8"/>
	<path class="st0" d="M365.4,243c0,0,0.6-3.3-1.9-7.1c-2.1-3.3-4.1-4-9.7-4.2c-15.8-0.5-15.4,11.2-15.4,11.2L365.4,243z
		 M382.5,229.6c2.3,8.3-2.1,27.9-2.1,27.9s-23-0.4-35.6,0c-3.9,0.1-8.6-0.4-9.8,1.4c-1.6,2.6,0.6,6.5,2.5,8.1c2.2,1.9,6.4,2.1,8,2.3
		c10.2,1.3,31.6,0.3,31.6,0.3l-3.7,16.4c0,0-30.2,1.5-45.3-2.1c-3-0.7-5.8-2.1-7.7-4.2c-0.5-0.6-1-1.3-1.5-2c-0.4-0.5-1.5-2.2-2-3.6
		c-3.5-9.2,0.4-26.8,4.2-36.3c0.4-1.1,1-2.5,1.6-3.7c0.7-1.5,1.3-3.1,1.9-4c0.4-0.6,0.9-1,1.3-1.6c0.5-0.7,1-1.3,1.5-1.9
		c1.4-1.6,3-2.8,4.9-4.2c6.3-4.7,17.7-8.4,31.4-7c5.2,0.5,12.9,2.4,16.7,7.7C381.4,224.7,381.9,227.6,382.5,229.6z"/>
	<path class="st0" d="M299.3,216.3l17.6-0.1c0,0-9.8,46.5-14.8,69.1h-20.2c-14.1,0-26.7,1.8-32.1-8.4c-5.2-9.8-0.2-26,2.1-37
		c1.6-7.8,5.1-23.6,5.1-23.6l18.2-0.2c0,0-5.1,24.7-7.3,37.1c-0.8,4.4-2.3,8.6-0.7,11.9c1.6,3.1,3.8,3.3,10.5,3.5c2.1,0,9.1,0,9.1,0
		L299.3,216.3"/>
	<path class="st0" d="M217,249.8c1.8-6.5,4.5-13.6,4.2-19.5c-0.4-6.3-5.7-12-9.1-13.2c-10.3-3.6-19.9,1.4-23.7,5.6
		c-4.9,5.4-6.6,11.6-8.4,20.2c-1.3,6.4-2.4,13.1,0,18.1c4.2,8.8,17.3,6.9,31.4,7C213.6,262.3,215.3,256,217,249.8z M241.4,224
		c2,14.6-5.7,30.7-11,44.7c5.4,0.5,10.2-0.1,10.5,0.3c0.4,0.5-3.6,16.7-5,16.8c-4.3,0.1-18.5,0.2-24.5,0.2
		c-19.4,0-37.5,1.3-46.7-8.4c-3.8-3.9-6.3-10.6-7-15.3c-1-7.9,0.3-16.6,2.1-23.7c1.7-6.5,3.8-12.6,7-18.1
		c8.1-14.2,22.3-24.7,46-22.3c4.6,0.5,11.2,2.5,15.3,4.9c0.3,0.2,1.3,1,1.5,1.1C235.3,207.7,240.4,216.2,241.4,224z"/>
	<path class="st0" d="M155.8,216.4c-1.2,5.3-2.3,11.4-3.6,16.7h-19.5c1.5-5.8,2.7-11.7,4.2-16.7
		C143.1,216.3,148.9,216.4,155.8,216.4"/>
	<path class="st0" d="M132,237.9h18.8c-2.5,13.6-7.3,35.6-11.2,50.9c-2.4,9.6-4,16.6-10.5,21.6c-0.6,0.5-0.9,0.2-1.4,0.7
		c-1.2,1.1-6.7,2.5-9.8,2.8c-5,0.5-10.6,0.1-16.7-0.1c1.6-5.8,3.4-12.8,4.8-18.1c14.9,1.8,15.3-12.3,18.1-25.8
		C126,262.2,131,241.1,132,237.9"/>
	<path class="st1" d="M88,273.5l-0.4,1c-6.9,13.4-19.1,21.6-36.4,22c-8.1,0.2-15.9-1.9-20.9-4.2c-10.9-4.9-20.1-14-25.1-23.7
		c-7.2-13.9-8.5-33.3,6.5-47.8c0.2,0-1.8,3.1-1.6,3.1l-0.4,1.3c-10.8,33.7,22.4,62.6,54.7,59.3C72.1,283.8,82,279.6,88,273.5"/>
	<path class="st1" d="M68.5,259.5c8.1,0.1,16.6-3.7,21.6-9.1c-4.4,11.1-17.1,18.3-34.2,16c-14.3-1.9-27.9-16.3-29.3-30.7
		c-1-10.5,2.6-16.7,8.6-24.3c-2.1,4-2.9,7-3.1,9C30,243.2,50.4,259.4,68.5,259.5"/>
	<path class="st1" d="M89.3,231.4c-1.3,2.9-8.5,8.4-11.7,9c-12.7,2.7-20.8-3.3-25.1-10.2c-0.6-1-1.8-3.8-2-4.5
		c-1.7-5.6-0.9-14.1,4-18.5c-1.5,4.2-1.7,9-0.9,12.2c0.5,1.9,1.9,5.2,3.4,7.3c2.6,3.8,4.3,4.7,7.7,6.8c1.5,0.9,3.2,1.6,3.9,1.8
		C71.7,236.3,78.4,238.8,89.3,231.4"/>
</g>
</svg>
